<svg xmlns="http://www.w3.org/2000/svg" width="256" height="256" viewBox="0 0 100 100"><rect width="100" height="100" rx="20" fill="#7d6ee7"></rect><path d="M45.86 59.72L45.86 59.72Q45.86 65.48 41.63 68.72Q37.40 71.96 29.39 71.96L29.39 71.96Q25.97 71.96 23.09 71.38Q20.21 70.79 18.19 69.85Q16.16 68.90 15.04 67.69Q13.91 66.47 13.91 65.21L13.91 65.21Q13.91 64.13 14.50 63.14Q15.08 62.15 16.25 61.43L16.25 61.43Q18.68 63.23 21.92 64.63Q25.16 66.02 29.30 66.02L29.30 66.02Q38.66 66.02 38.66 59.72L38.66 59.72Q38.66 54.59 32.45 53.06L32.45 53.06L24.98 51.08Q19.49 49.64 16.97 46.90Q14.45 44.15 14.45 39.83L14.45 39.83Q14.45 37.49 15.40 35.33Q16.34 33.17 18.32 31.55Q20.30 29.93 23.23 28.99Q26.15 28.04 30.11 28.04L30.11 28.04Q36.41 28.04 40.28 29.89Q44.15 31.73 44.15 34.16L44.15 34.16Q44.15 35.33 43.57 36.23Q42.98 37.13 41.99 37.58L41.99 37.58Q40.37 36.50 37.40 35.24Q34.43 33.98 30.38 33.98L30.38 33.98Q26.33 33.98 23.95 35.51Q21.56 37.04 21.56 39.83L21.56 39.83Q21.56 41.90 22.91 43.34Q24.26 44.78 27.41 45.50L27.41 45.50L33.62 47.03Q39.74 48.56 42.80 51.58Q45.86 54.59 45.86 59.72ZM86.09 59.72L86.09 59.72Q86.09 65.48 81.86 68.72Q77.63 71.96 69.62 71.96L69.62 71.96Q66.20 71.96 63.32 71.38Q60.44 70.79 58.41 69.85Q56.39 68.90 55.27 67.69Q54.14 66.47 54.14 65.21L54.14 65.21Q54.14 64.13 54.73 63.14Q55.31 62.15 56.48 61.43L56.48 61.43Q58.91 63.23 62.15 64.63Q65.39 66.02 69.53 66.02L69.53 66.02Q78.89 66.02 78.89 59.72L78.89 59.72Q78.89 54.59 72.68 53.06L72.68 53.06L65.21 51.08Q59.72 49.64 57.20 46.90Q54.68 44.15 54.68 39.83L54.68 39.83Q54.68 37.49 55.63 35.33Q56.57 33.17 58.55 31.55Q60.53 29.93 63.45 28.99Q66.38 28.04 70.34 28.04L70.34 28.04Q76.64 28.04 80.51 29.89Q84.38 31.73 84.38 34.16L84.38 34.16Q84.38 35.33 83.80 36.23Q83.21 37.13 82.22 37.58L82.22 37.58Q80.60 36.50 77.63 35.24Q74.66 33.98 70.61 33.98L70.61 33.98Q66.56 33.98 64.17 35.51Q61.79 37.04 61.79 39.83L61.79 39.83Q61.79 41.90 63.14 43.34Q64.49 44.78 67.64 45.50L67.64 45.50L73.85 47.03Q79.97 48.56 83.03 51.58Q86.09 54.59 86.09 59.72Z" fill="#fff"></path></svg>