<svg xmlns="http://www.w3.org/2000/svg" width="256" height="256" viewBox="0 0 100 100"><rect width="100" height="100" rx="20" fill="#7d6ee7"></rect><path d="M14.36 78.71L14.36 78.71Q13.91 78.89 13.01 79.11Q12.11 79.34 11.03 79.34L11.03 79.34Q7.16 79.34 7.16 76.10L7.16 76.10L7.16 20.57Q7.61 20.39 8.56 20.17Q9.50 19.94 10.58 19.94L10.58 19.94Q14.36 19.94 14.36 23.18L14.36 23.18L14.36 39.38Q16.52 38.12 19.45 37.13Q22.37 36.14 26.06 36.14L26.06 36.14Q29.84 36.14 32.95 37.13Q36.05 38.12 38.30 40.15Q40.55 42.17 41.81 45.27Q43.07 48.38 43.07 52.52L43.07 52.52L43.07 78.71Q42.62 78.89 41.68 79.11Q40.73 79.34 39.74 79.34L39.74 79.34Q35.87 79.34 35.87 76.10L35.87 76.10L35.87 52.70Q35.87 47.30 32.90 44.69Q29.93 42.08 25.07 42.08L25.07 42.08Q21.92 42.08 19.18 43.21Q16.43 44.33 14.36 45.95L14.36 45.95L14.36 78.71ZM89.42 58.46L61.70 62.33Q64.13 74.12 77.18 74.12L77.18 74.12Q80.96 74.12 84.02 72.86Q87.08 71.60 88.88 70.16L88.88 70.16Q91.04 71.42 91.04 73.58L91.04 73.58Q91.04 74.84 89.92 76.01Q88.79 77.18 86.86 78.08Q84.92 78.98 82.36 79.52Q79.79 80.06 76.82 80.06L76.82 80.06Q66.38 80.06 60.31 74.39Q54.23 68.72 54.23 57.83L54.23 57.83Q54.23 52.70 55.72 48.70Q57.20 44.69 59.86 41.90Q62.51 39.11 66.20 37.63Q69.89 36.14 74.21 36.14L74.21 36.14Q78.26 36.14 81.68 37.49Q85.10 38.84 87.58 41.32Q90.05 43.79 91.45 47.17Q92.84 50.54 92.84 54.59L92.84 54.59Q92.84 56.57 91.94 57.42Q91.04 58.28 89.42 58.46L89.42 58.46ZM74.12 41.99L74.12 41.99Q68.63 41.99 65.03 45.82Q61.43 49.64 61.25 56.75L61.25 56.75L86 53.33Q85.55 48.38 82.53 45.19Q79.52 41.99 74.12 41.99Z" fill="#fff"></path></svg>